#!OML:ASF F:\VICON\USERDATA\INSTALL\Justin_Nancy\Justin_Nancy.ASF
:FULLY-SPECIFIED
:DEGREES
48
root 0.461165 17.3576 -31.1886 3.15382 0.25843 -1.03939
lowerback 5.41103 -2.47953 -3.48426
upperback -1.97634 -3.35052 4.9814
thorax -4.60052 -1.48782 7.50628
lowerneck -5.22888 -0.797197 -13.2586
upperneck 19.9085 -0.447427 5.1155
head 6.99897 -0.771941 3.84992
rclavicle 2.90723e-014 -5.1684e-014
rhumerus -35.8902 0.268286 -81.1196
rradius 28.2691
rwrist 7.38911
rhand -15.6576 10.3224
rfingers 7.12502
rthumb 10.5305 -19.3938
lclavicle 2.90723e-014 -5.1684e-014
lhumerus -36.9312 23.2838 80.7617
lradius 25.8809
lwrist -13.6397
lhand -9.16159 25.1466
lfingers 7.12502
lthumb 16.7909 54.4405
rfemur -10.4615 2.33116 27.2351
rtibia 30.007
rfoot -18.932 -8.76341
rtoes 14.5506
lfemur -20.483 -4.71603 -18.1599
ltibia 45.4108
lfoot -15.5631 3.61172
ltoes 2.90624
49
root 0.447201 17.3642 -31.1717 3.03763 0.480085 -1.03653
lowerback 5.5065 -2.47644 -3.39884
upperback -1.78943 -3.34757 4.89836
thorax -4.46786 -1.49903 7.36438
lowerneck -5.4206 -0.861835 -13.0624
upperneck 19.8529 -0.524036 5.07429
head 7.02056 -0.793689 3.79761
rclavicle -1.46604e-014 1.59028e-015
rhumerus -35.7406 0.161696 -81.1616
rradius 28.2954
rwrist 7.3906
rhand -15.2574 8.91869
rfingers 7.12502
rthumb 10.9164 -20.7775
lclavicle -1.46604e-014 1.59028e-015
lhumerus -36.81 23.326 80.5923
lradius 25.9155
lwrist -13.8145
lhand -8.94752 24.5894
lfingers 7.12502
lthumb 16.997 53.8658
rfemur -10.132 2.24537 27.3176
rtibia 29.7554
rfoot -18.8867 -8.86452
rtoes 14.6944
lfemur -21.2716 -4.62792 -18.1739
ltibia 46.5482
lfoot -14.6232 3.75266
ltoes -3.03322
50
root 0.434759 17.3668 -31.1563 3.01156 0.543264 -1.16211
lowerback 5.44347 -2.41602 -3.23874
upperback -1.66144 -3.25728 4.86671
thorax -4.32138 -1.46686 7.22095
lowerneck -5.29087 -0.801884 -12.9134
upperneck 19.6573 -0.484356 5.11716
head 6.92766 -0.754875 3.78607
rclavicle 3.10601e-014 7.95139e-015
rhumerus -35.7954 0.117903 -81.177
rradius 28.5547
rwrist 7.3644
rhand -16.027 7.97102
rfingers 7.12502
rthumb 10.1741 -21.763
lclavicle 3.10601e-014 7.95139e-015
lhumerus -36.7924 23.3689 80.3697
lradius 25.9492
lwrist -14.176
lhand -7.90081 25.5766
lfingers 7.12502
lthumb 18.0043 54.7633
rfemur -9.88507 2.27078 27.5255
rtibia 29.4407
rfoot -18.7338 -8.92094
rtoes 14.709
lfemur -21.9547 -4.59844 -17.9579
ltibia 47.752
lfoot -14.2375 3.46147
ltoes -4.99395
51
root 0.427888 17.3709 -31.1327 2.89655 0.406364 -1.29891
lowerback 5.44931 -2.22895 -3.02883
upperback -1.5276 -2.99518 4.81991
thorax -4.23525 -1.34778 7.02423
lowerneck -4.88167 -1.08772 -12.9179
upperneck 19.3228 -0.930627 5.11303
head 6.79071 -0.96404 3.74613
rclavicle 2.34566e-014 -7.95139e-015
rhumerus -35.8405 0.0111293 -81.1835
rradius 28.6653
rwrist 6.78875
rhand -13.3385 2.46982
rfingers 7.12502
rthumb 12.7668 -27.1198
lclavicle 2.34566e-014 -7.95139e-015
lhumerus -36.6211 23.5267 80.1237
lradius 25.6945
lwrist -14.6973
lhand -6.80832 26.5333
lfingers 7.12502
lthumb 19.0552 55.6199
rfemur -9.50744 2.43353 27.7166
rtibia 29.124
rfoot -18.6157 -8.90781
rtoes 13.876
lfemur -22.5246 -4.53651 -17.7881
ltibia 48.9363
lfoot -13.9629 3.35047
ltoes -6.94964
52
root 0.421955 17.3811 -31.1058 2.79499 0.442394 -1.23436
lowerback 5.56662 -2.15916 -2.92673
upperback -1.40231 -2.90236 4.68895
thorax -4.19473 -1.30942 6.81945
lowerneck -5.04411 -1.12876 -12.9049
upperneck 19.8598 -0.989166 5.21802
head 6.99795 -0.997087 3.78436
rclavicle 3.51352e-014 -1.82882e-014
rhumerus -35.6112 -0.281779 -81.231
rradius 28.4076
rwrist 6.581
rhand -8.74708 -25.2796
rfingers 7.12502
rthumb 17.1899 -54.5392
lclavicle 3.51352e-014 -1.82882e-014
lhumerus -36.281 23.7957 79.8229
lradius 25.3292
lwrist -14.8642
lhand -7.25272 25.8125
lfingers 7.12502
lthumb 18.6278 54.9406
rfemur -9.11306 2.36081 27.6799
rtibia 28.8134
rfoot -18.5277 -8.90135
rtoes 10.7101
lfemur -23.1202 -4.68156 -17.8425
ltibia 50.1375
lfoot -13.4771 3.11756
ltoes -7.4474
53
root 0.413683 17.386 -31.084 2.84816 0.548856 -1.12229
lowerback 5.59849 -2.13889 -2.88708
upperback -1.34075 -2.87792 4.57551
thorax -4.159 -1.30185 6.67265
lowerneck -5.3202 -1.3249 -12.846
upperneck 20.0709 -1.21944 5.16565
head 7.13805 -1.11088 3.74357
rclavicle -1.3418e-015 1.03368e-014
rhumerus -35.4603 -0.635201 -81.1659
rradius 28.2665
rwrist 6.82616
rhand -18.9907 11.8507
rfingers 7.12502
rthumb 7.31411 -18.0028
lclavicle -1.3418e-015 1.03368e-014
lhumerus -36.0736 23.978 79.5763
lradius 25.1144
lwrist -15.0727
lhand -6.68586 26.3955
lfingers 7.12502
lthumb 19.1729 55.4704
rfemur -8.89536 2.2466 27.5919
rtibia 28.4791
rfoot -18.4584 -8.86386
rtoes 9.37372
lfemur -23.8777 -4.80402 -17.9155
ltibia 51.333
lfoot -12.7066 2.58009
ltoes -5.93174
54
root 0.402984 17.381 -31.061 2.8954 0.62283 -1.2038
lowerback 5.59998 -2.00172 -2.63961
upperback -1.30346 -2.68065 4.46378
thorax -4.16312 -1.21129 6.39436
lowerneck -5.43126 -1.41944 -12.6736
upperneck 19.9982 -1.37988 5.30165
head 7.14587 -1.15992 3.74675
rclavicle -3.50358e-014 4.6118e-014
rhumerus -35.5421 -1.17837 -81.0062
rradius 28.658
rwrist 6.27442
rhand -16.0615 12.2444
rfingers 7.12502
rthumb 10.1408 -17.4913
lclavicle -3.50358e-014 4.6118e-014
lhumerus -36.0639 23.4324 79.5941
lradius 25.2763
lwrist -15.0305
lhand -4.92346 28.5349
lfingers 7.12502
lthumb 20.8669 57.4327
rfemur -8.61979 2.30215 27.7578
rtibia 28.146
rfoot -18.4511 -8.9928
rtoes 8.6163
lfemur -24.7071 -4.76325 -17.7631
ltibia 52.5053
lfoot -11.954 2.14365
ltoes -5.52656
